<?xml version="1.0" encoding="UTF-8"?>
<svg width="512" height="512" viewBox="0 0 512 512" fill="none" xmlns="http://www.w3.org/2000/svg">
    <!-- Calculator body -->
    <rect x="64" y="32" width="384" height="448" rx="32" fill="#4dabf7"/>
    
    <!-- Display -->
    <rect x="96" y="64" width="320" height="80" rx="16" fill="#ffffff"/>
    
    <!-- Buttons -->
    <rect x="96" y="176" width="64" height="64" rx="12" fill="#ffffff"/>
    <rect x="176" y="176" width="64" height="64" rx="12" fill="#ffffff"/>
    <rect x="256" y="176" width="64" height="64" rx="12" fill="#ffffff"/>
    <rect x="336" y="176" width="64" height="64" rx="12" fill="#ffffff"/>
    
    <rect x="96" y="256" width="64" height="64" rx="12" fill="#ffffff"/>
    <rect x="176" y="256" width="64" height="64" rx="12" fill="#ffffff"/>
    <rect x="256" y="256" width="64" height="64" rx="12" fill="#ffffff"/>
    <rect x="336" y="256" width="64" height="64" rx="12" fill="#ffffff"/>
    
    <rect x="96" y="336" width="64" height="64" rx="12" fill="#ffffff"/>
    <rect x="176" y="336" width="64" height="64" rx="12" fill="#ffffff"/>
    <rect x="256" y="336" width="64" height="64" rx="12" fill="#ffffff"/>
    <rect x="336" y="336" width="64" height="64" rx="12" fill="#ffffff"/>
    
    <!-- Operator buttons -->
    <rect x="416" y="176" width="64" height="64" rx="12" fill="#d0ebff"/>
    <rect x="416" y="256" width="64" height="64" rx="12" fill="#d0ebff"/>
    <rect x="416" y="336" width="64" height="64" rx="12" fill="#d0ebff"/>
    <rect x="416" y="416" width="64" height="64" rx="12" fill="#d0ebff"/>
</svg> 